<svg width="108" height="45" viewBox="0 0 108 45" fill="none" xmlns="http://www.w3.org/2000/svg">
<path d="M5.85938 10.1328L4.07812 9.05469C2.96094 8.375 2.16406 7.70703 1.6875 7.05078C1.21875 6.38672 0.984375 5.625 0.984375 4.76562C0.984375 3.47656 1.42969 2.42969 2.32031 1.625C3.21875 0.820312 4.38281 0.417969 5.8125 0.417969C7.17969 0.417969 8.43359 0.800781 9.57422 1.56641V4.22656C8.39453 3.09375 7.125 2.52734 5.76562 2.52734C5 2.52734 4.37109 2.70703 3.87891 3.06641C3.38672 3.41797 3.14062 3.87109 3.14062 4.42578C3.14062 4.91797 3.32031 5.37891 3.67969 5.80859C4.03906 6.23828 4.62109 6.6875 5.42578 7.15625L7.21875 8.21094C9.21875 9.39844 10.2188 10.9141 10.2188 12.7578C10.2188 14.0703 9.77734 15.1367 8.89453 15.957C8.01953 16.7773 6.87891 17.1875 5.47266 17.1875C3.85547 17.1875 2.38281 16.6914 1.05469 15.6992V12.7227C2.32031 14.3242 3.78516 15.125 5.44922 15.125C6.18359 15.125 6.79297 14.9219 7.27734 14.5156C7.76953 14.1016 8.01562 13.5859 8.01562 12.9688C8.01562 11.9688 7.29688 11.0234 5.85938 10.1328ZM24.3398 0.628906H26.6836V17H24.3398V9.875H15.1406V17H12.7969V0.628906H15.1406V7.70703H24.3398V0.628906ZM38.3438 0.394531C40.875 0.394531 42.9805 1.19531 44.6602 2.79688C46.3477 4.39844 47.1914 6.40625 47.1914 8.82031C47.1914 11.2344 46.3398 13.2344 44.6367 14.8203C42.9414 16.3984 40.8008 17.1875 38.2148 17.1875C35.7461 17.1875 33.6875 16.3984 32.0391 14.8203C30.3984 13.2344 29.5781 11.25 29.5781 8.86719C29.5781 6.42188 30.4062 4.39844 32.0625 2.79688C33.7188 1.19531 35.8125 0.394531 38.3438 0.394531ZM38.4375 2.62109C36.5625 2.62109 35.0195 3.20703 33.8086 4.37891C32.6055 5.55078 32.0039 7.04688 32.0039 8.86719C32.0039 10.6328 32.6094 12.1016 33.8203 13.2734C35.0312 14.4453 36.5469 15.0312 38.3672 15.0312C40.1953 15.0312 41.7188 14.4336 42.9375 13.2383C44.1641 12.043 44.7773 10.5547 44.7773 8.77344C44.7773 7.03906 44.1641 5.58203 42.9375 4.40234C41.7188 3.21484 40.2188 2.62109 38.4375 2.62109ZM49.9336 17V0.605469H55.125C56.6875 0.605469 57.9336 1.02734 58.8633 1.87109C59.793 2.71484 60.2578 3.84766 60.2578 5.26953C60.2578 6.22266 60.0195 7.06641 59.543 7.80078C59.0664 8.53516 58.4141 9.07031 57.5859 9.40625C56.7578 9.73438 55.5703 9.89844 54.0234 9.89844H52.2891V17H49.9336ZM54.7148 2.69141H52.2891V7.8125H54.8555C55.8086 7.8125 56.543 7.58984 57.0586 7.14453C57.5742 6.69141 57.832 6.04688 57.832 5.21094C57.832 3.53125 56.793 2.69141 54.7148 2.69141ZM16.875 40.3945C16.875 41.793 16.3945 42.9102 15.4336 43.7461C14.4805 44.582 13.1445 45 11.4258 45H2.03906V28.7578H9.89062C10.9062 28.7578 11.7891 28.8555 12.5391 29.0508C13.2969 29.2461 13.9062 29.5156 14.3672 29.8594C14.8281 30.1953 15.1719 30.5938 15.3984 31.0547C15.625 31.5156 15.7383 32.0195 15.7383 32.5664C15.7383 33.1602 15.6211 33.7109 15.3867 34.2188C15.1523 34.7188 14.8594 35.1328 14.5078 35.4609C14.1641 35.7812 13.8164 36.0078 13.4648 36.1406C14.5742 36.5781 15.418 37.1328 15.9961 37.8047C16.582 38.4688 16.875 39.332 16.875 40.3945ZM11.1562 33.4336C11.1562 32.6523 10.8984 32.1328 10.3828 31.875C9.86719 31.6172 9.0625 31.4883 7.96875 31.4883H6.9375V35.3789H7.99219C9.10938 35.3789 9.91406 35.25 10.4062 34.9922C10.9062 34.7344 11.1562 34.2148 11.1562 33.4336ZM11.9531 40.1953C11.9531 38.8047 10.9453 38.1094 8.92969 38.1094H6.9375V42.2695H8.92969C10.9453 42.2695 11.9531 41.5781 11.9531 40.1953ZM37.1484 45H32.1328L30.8086 41.707H23.7539L22.4062 45H17.3906L24.5742 28.7578H29.9883L37.1484 45ZM29.6836 38.8828L27.3047 32.9531L24.9023 38.8828H29.6836ZM56.3906 45H50.4141L44.2031 37.3945V45H39.3047V28.7578H44.2031V36.0234L50.0859 28.7578H55.4062L49.3594 36.3633L56.3906 45ZM70.7695 45H58.5234V28.7578H70.5703V32.0156H63.4219V34.9922H70.2422V38.2617H63.4219V41.7305H70.7695V45ZM89.7891 45H84.5273L83.25 42.1172C82.7812 41.0625 82.3594 40.293 81.9844 39.8086C81.6094 39.3164 81.2422 39.0039 80.8828 38.8711C80.5312 38.7305 80.0742 38.6602 79.5117 38.6602H78.9609V45H74.0625V28.7578H82.3945C83.7383 28.7578 84.8398 29.0312 85.6992 29.5781C86.5586 30.125 87.1758 30.7891 87.5508 31.5703C87.9336 32.3516 88.125 33.0938 88.125 33.7969C88.125 34.6172 87.9648 35.3125 87.6445 35.8828C87.332 36.4453 87 36.8555 86.6484 37.1133C86.2969 37.3711 85.9023 37.6172 85.4648 37.8516C85.9883 38.1562 86.418 38.5195 86.7539 38.9414C87.0977 39.3555 87.5625 40.1992 88.1484 41.4727L89.7891 45ZM83.1328 33.8906C83.1328 33.1406 82.8867 32.6172 82.3945 32.3203C81.9023 32.0234 81.1016 31.875 79.9922 31.875H78.9609V35.7891H80.0156C81.2109 35.7891 82.0273 35.6602 82.4648 35.4023C82.9102 35.1367 83.1328 34.6328 83.1328 33.8906ZM107.156 28.7578L100.793 37.5586V45H95.8945V37.6523L89.4141 28.7578H94.5L98.2266 33.8672L101.965 28.7578H107.156Z" fill="#FAF4EA"/>
</svg>
